Compagnon-Medium.ufo
<glyph name="ampersand" format="2">
	<advance width="600"/>
	<unicode hex="0026"/>
	<outline>
		<contour>
			<point x="468" y="136" type="line"/>
			<point x="571" y="250" type="line"/>
			<point x="571" y="330" type="line"/>
			<point x="380" y="330" type="line"/>
			<point x="380" y="250" type="line"/>
			<point x="453" y="250" type="line"/>
			<point x="400" y="192" type="line"/>
			<point x="224" y="346"/>
			<point x="160" y="390"/>
			<point x="160" y="455" type="curve" smooth="yes"/>
			<point x="160" y="492"/>
			<point x="182" y="518"/>
			<point x="269" y="518" type="curve" smooth="yes"/>
			<point x="360" y="518"/>
			<point x="377" y="492"/>
			<point x="377" y="416" type="curve"/>
			<point x="467" y="416" type="line"/>
			<point x="467" y="551"/>
			<point x="402" y="603"/>
			<point x="269" y="603" type="curve" smooth="yes"/>
			<point x="126" y="603"/>
			<point x="70" y="551"/>
			<point x="70" y="453" type="curve" smooth="yes"/>
			<point x="70" y="401"/>
			<point x="96" y="372"/>
			<point x="108" y="351" type="curve"/>
			<point x="51" y="298"/>
			<point x="28" y="223"/>
			<point x="28" y="162" type="curve" smooth="yes"/>
			<point x="28" y="56"/>
			<point x="126" y="-13"/>
			<point x="210" y="-13" type="curve" smooth="yes"/>
			<point x="304" y="-13"/>
			<point x="366" y="36"/>
			<point x="412" y="77" type="curve"/>
			<point x="521" y="-13" type="line"/>
			<point x="576" y="47" type="line"/>
		</contour>
		<contour>
			<point x="344" y="134" type="line"/>
			<point x="300" y="97"/>
			<point x="261" y="76"/>
			<point x="215" y="76" type="curve" smooth="yes"/>
			<point x="103" y="76"/>
			<point x="89" y="210"/>
			<point x="169" y="288" type="curve"/>
		</contour>
	</outline>
</glyph>
<glyph name="quotesingle" format="2">
	<advance width="600"/>
	<unicode hex="0027"/>
	<outline>
		<contour>
			<point x="240" y="484" type="line"/>
			<point x="261" y="310" type="line"/>
			<point x="341" y="310" type="line"/>
			<point x="361" y="484" type="line"/>
			<point x="361" y="603" type="line"/>
			<point x="240" y="603" type="line"/>
		</contour>
	</outline>
</glyph>
<glyph name="parenleft" format="2">
	<advance width="600"/>
	<unicode hex="0028"/>
	<outline>
		<contour>
			<point x="411" y="515" type="curve"/>
			<point x="391" y="603" type="line"/>
			<point x="208" y="543"/>
			<point x="187" y="369"/>
			<point x="189" y="255" type="curve" smooth="yes"/>
			<point x="191" y="137"/>
			<point x="208" y="-33"/>
			<point x="391" y="-93" type="curve"/>
			<point x="411" y="-5" type="line"/>
			<point x="298" y="46"/>
			<point x="278" y="137"/>
			<point x="279" y="255" type="curve" smooth="yes"/>
			<point x="280" y="369"/>
			<point x="298" y="464"/>
		</contour>
	</outline>
</glyph>
<glyph name="parenright" format="2">
	<advance width="600"/>
	<unicode hex="0029"/>
	<outline>
		<contour>
			<point x="188" y="515" type="line"/>
			<point x="301" y="464"/>
			<point x="319" y="369"/>
			<point x="320" y="255" type="curve" smooth="yes"/>
			<point x="321" y="137"/>
			<point x="301" y="46"/>
			<point x="188" y="-5" type="curve"/>
			<point x="208" y="-93" type="line"/>
			<point x="391" y="-33"/>
			<point x="408" y="137"/>
			<point x="410" y="255" type="curve" smooth="yes"/>
			<point x="412" y="369"/>
			<point x="391" y="543"/>
			<point x="208" y="603" type="curve"/>
		</contour>
	</outline>
</glyph>
<glyph name="asterisk" format="2">
	<advance width="600"/>
	<unicode hex="002A"/>
	<outline>
		<contour>
			<point x="482" y="352" type="line"/>
			<point x="430" y="382" type="line"/>
			<point x="351" y="405" type="line"/>
			<point x="326" y="360" type="line"/>
			<point x="385" y="303" type="line"/>
			<point x="437" y="273" type="line"/>
		</contour>
		<contour>
			<point x="346" y="220" type="line"/>
			<point x="346" y="280" type="line"/>
			<point x="326" y="360" type="line"/>
			<point x="275" y="360" type="line"/>
			<point x="255" y="280" type="line"/>
			<point x="255" y="220" type="line"/>
		</contour>
		<contour>
			<point x="255" y="590" type="line"/>
			<point x="255" y="530" type="line"/>
			<point x="275" y="450" type="line"/>
			<point x="326" y="450" type="line"/>
			<point x="346" y="530" type="line"/>
			<point x="346" y="590" type="line"/>
		</contour>
		<contour>
			<point x="119" y="352" type="line"/>
			<point x="164" y="273" type="line"/>
			<point x="216" y="303" type="line"/>
			<point x="275" y="360" type="line"/>
			<point x="250" y="405" type="line"/>
			<point x="171" y="382" type="line"/>
		</contour>
		<contour>
			<point x="482" y="458" type="line"/>
			<point x="437" y="537" type="line"/>
			<point x="385" y="507" type="line"/>
			<point x="326" y="450" type="line"/>
			<point x="351" y="405" type="line"/>
			<point x="430" y="428" type="line"/>
		</contour>
		<contour>
			<point x="119" y="458" type="line"/>
			<point x="171" y="428" type="line"/>
			<point x="250" y="405" type="line"/>
			<point x="275" y="450" type="line"/>
			<point x="216" y="507" type="line"/>
			<point x="164" y="537" type="line"/>
		</contour>
	</outline>
</glyph>
<glyph name="comma" format="2">
	<advance width="600"/>
	<unicode hex="002C"/>
	<outline>
		<contour>
			<point x="386" y="148" type="line"/>
			<point x="214" y="148" type="line"/>
			<point x="214" y="5" type="line"/>
			<point x="272" y="5" type="line"/>
			<point x="219" y="-151" type="line"/>
			<point x="285" y="-173" type="line"/>
			<point x="386" y="15" type="line"/>
		</contour>
	</outline>
</glyph>
<glyph name="period" format="2">
	<advance width="600"/>
	<unicode hex="002E"/>
	<outline>
		<contour>
			<point x="374" y="0" type="line"/>
			<point x="374" y="148" type="line"/>
			<point x="226" y="148" type="line"/>
			<point x="226" y="0" type="line"/>
		</contour>
	</outline>
</glyph>
<glyph name="slash" format="2">
	<advance width="600"/>
	<unicode hex="002F"/>
	<outline>
		<contour>
			<point x="416" y="603" type="line"/>
			<point x="325" y="603" type="line"/>
			<point x="185" y="-80" type="line"/>
			<point x="276" y="-80" type="line"/>
		</contour>
	</outline>
</glyph>
<glyph name="zero" format="2">
	<advance width="600"/>
	<unicode hex="0030"/>
	<outline>
		<contour>
			<point x="299" y="591" type="curve" smooth="yes"/>
			<point x="93" y="591"/>
			<point x="37" y="501"/>
			<point x="37" y="315" type="curve" smooth="yes"/>
			<point x="37" y="91"/>
			<point x="93" y="-1"/>
			<point x="299" y="-1" type="curve" smooth="yes"/>
			<point x="505" y="-1"/>
			<point x="563" y="91"/>
			<point x="563" y="315" type="curve" smooth="yes"/>
			<point x="563" y="501"/>
			<point x="505" y="591"/>
		</contour>
		<contour>
			<point x="299" y="89" type="curve" smooth="yes"/>
			<point x="143" y="89"/>
			<point x="127" y="151"/>
			<point x="127" y="314" type="curve" smooth="yes"/>
			<point x="127" y="435"/>
			<point x="143" y="501"/>
			<point x="299" y="501" type="curve" smooth="yes"/>
			<point x="455" y="501"/>
			<point x="473" y="435"/>
			<point x="473" y="314" type="curve" smooth="yes"/>
			<point x="473" y="151"/>
			<point x="455" y="89"/>
		</contour>
	</outline>
</glyph>
<glyph name="two" format="2">
	<advance width="600"/>
	<unicode hex="0032"/>
	<guideline x="59" y="310" angle="90"/>
	<outline>
		<contour>
			<point x="55" y="371" type="curve"/>
			<point x="145" y="371" type="line"/>
			<point x="145" y="469"/>
			<point x="161" y="518"/>
			<point x="302" y="518" type="curve" smooth="yes"/>
			<point x="425" y="518"/>
			<point x="458" y="488"/>
			<point x="457" y="418" type="curve" smooth="yes"/>
			<point x="456" y="339"/>
			<point x="376" y="312"/>
			<point x="278" y="284" type="curve" smooth="yes"/>
			<point x="144" y="246"/>
			<point x="53" y="218"/>
			<point x="53" y="0" type="curve"/>
			<point x="547" y="0" type="line"/>
			<point x="547" y="85" type="line"/>
			<point x="151" y="85" type="line"/>
			<point x="151" y="148"/>
			<point x="213" y="175"/>
			<point x="321" y="208" type="curve" smooth="yes"/>
			<point x="426" y="240"/>
			<point x="547" y="280"/>
			<point x="547" y="414" type="curve" smooth="yes"/>
			<point x="547" y="558"/>
			<point x="474" y="603"/>
			<point x="302" y="603" type="curve" smooth="yes"/>
			<point x="159" y="603"/>
			<point x="55" y="569"/>
		</contour>
	</outline>
</glyph>
<glyph name="three" format="2">
	<advance width="600"/>
	<unicode hex="0033"/>
	<outline>
		<contour>
			<point x="72" y="392" type="curve"/>
			<point x="162" y="392" type="line"/>
			<point x="162" y="504"/>
			<point x="203" y="518"/>
			<point x="316" y="518" type="curve" smooth="yes"/>
			<point x="404" y="518"/>
			<point x="442" y="493"/>
			<point x="442" y="439" type="curve" smooth="yes"/>
			<point x="442" y="369"/>
			<point x="411" y="346"/>
			<point x="330" y="346" type="curve" smooth="yes"/>
			<point x="223" y="346" type="line"/>
			<point x="223" y="261" type="line"/>
			<point x="319" y="261" type="line" smooth="yes"/>
			<point x="403" y="261"/>
			<point x="447" y="235"/>
			<point x="447" y="173" type="curve" smooth="yes"/>
			<point x="447" y="103"/>
			<point x="412" y="72"/>
			<point x="313" y="72" type="curve" smooth="yes"/>
			<point x="179" y="72"/>
			<point x="152" y="104"/>
			<point x="152" y="219" type="curve"/>
			<point x="62" y="219" type="line"/>
			<point x="62" y="3"/>
			<point x="175" y="-13"/>
			<point x="313" y="-13" type="curve" smooth="yes"/>
			<point x="489" y="-13"/>
			<point x="539" y="51"/>
			<point x="539" y="176" type="curve" smooth="yes"/>
			<point x="539" y="266"/>
			<point x="489" y="300"/>
			<point x="443" y="306" type="curve"/>
			<point x="482" y="313"/>
			<point x="534" y="345"/>
			<point x="534" y="441" type="curve" smooth="yes"/>
			<point x="534" y="567"/>
			<point x="452" y="603"/>
			<point x="316" y="603" type="curve" smooth="yes"/>
			<point x="165" y="603"/>
			<point x="70" y="590"/>
		</contour>
	</outline>
</glyph>
<glyph name="four" format="2">
	<advance width="600"/>
	<unicode hex="0034"/>
	<outline>
		<contour>
			<point x="560" y="129" type="line"/>
			<point x="560" y="214" type="line"/>
			<point x="449" y="214" type="line"/>
			<point x="449" y="590" type="line"/>
			<point x="348" y="590" type="line"/>
			<point x="39" y="214" type="line"/>
			<point x="39" y="129" type="line"/>
			<point x="359" y="129" type="line"/>
			<point x="359.249" y="0" type="line"/>
			<point x="449" y="0" type="line"/>
			<point x="449" y="129" type="line"/>
		</contour>
		<contour>
			<point x="360" y="214" type="line"/>
			<point x="149" y="214" type="line"/>
			<point x="360" y="471" type="line"/>
		</contour>
	</outline>
</glyph>
<glyph name="six" format="2">
	<advance width="600"/>
	<unicode hex="0036"/>
	<outline>
		<contour>
			<point x="162" y="312" type="curve"/>
			<point x="162" y="477"/>
			<point x="205" y="518"/>
			<point x="307" y="518" type="curve" smooth="yes"/>
			<point x="410" y="518"/>
			<point x="426" y="482"/>
			<point x="426" y="437" type="curve"/>
			<point x="524" y="437" type="line"/>
			<point x="524" y="563"/>
			<point x="420" y="603"/>
			<point x="307" y="603" type="curve" smooth="yes"/>
			<point x="148" y="603"/>
			<point x="68" y="552"/>
			<point x="67" y="296" type="curve" smooth="yes"/>
			<point x="66" y="67"/>
			<point x="113" y="-13"/>
			<point x="319" y="-13" type="curve" smooth="yes"/>
			<point x="463" y="-13"/>
			<point x="535" y="42"/>
			<point x="535" y="181" type="curve" smooth="yes"/>
			<point x="535" y="314"/>
			<point x="468" y="363"/>
			<point x="319" y="363" type="curve" smooth="yes"/>
			<point x="228" y="363"/>
			<point x="190" y="345"/>
		</contour>
		<contour>
			<point x="169" y="179" type="curve" smooth="yes"/>
			<point x="169" y="256"/>
			<point x="206" y="278"/>
			<point x="309" y="278" type="curve" smooth="yes"/>
			<point x="411" y="278"/>
			<point x="445" y="249"/>
			<point x="445" y="181" type="curve" smooth="yes"/>
			<point x="445" y="106"/>
			<point x="420" y="72"/>
			<point x="309" y="72" type="curve" smooth="yes"/>
			<point x="203" y="72"/>
			<point x="169" y="107"/>
		</contour>
	</outline>
</glyph>
<glyph name="seven" format="2">
	<advance width="600"/>
	<unicode hex="0037"/>
	<outline>
		<contour>
			<point x="75" y="590" type="line"/>
			<point x="75" y="505" type="line"/>
			<point x="524" y="505" type="line"/>
			<point x="524" y="590" type="line"/>
		</contour>
		<contour>
			<point x="186" y="0" type="line"/>
			<point x="292" y="0" type="line"/>
			<point x="524" y="505" type="line"/>
			<point x="453" y="559" type="line"/>
		</contour>
	</outline>
</glyph>
<glyph name="eight" format="2">
	<advance width="600"/>
	<unicode hex="0038"/>
	<outline>
		<contour>
			<point x="439" y="312" type="curve"/>
			<point x="478" y="319"/>
			<point x="515" y="370"/>
			<point x="515" y="442" type="curve" smooth="yes"/>
			<point x="515" y="558"/>
			<point x="436" y="603"/>
			<point x="300" y="603" type="curve" smooth="yes"/>
			<point x="164" y="603"/>
			<point x="85" y="558"/>
			<point x="85" y="442" type="curve" smooth="yes"/>
			<point x="85" y="370"/>
			<point x="122" y="319"/>
			<point x="161" y="312" type="curve"/>
			<point x="115" y="306"/>
			<point x="68" y="265"/>
			<point x="68" y="185" type="curve" smooth="yes"/>
			<point x="68" y="29"/>
			<point x="114" y="-13"/>
			<point x="300" y="-13" type="curve" smooth="yes"/>
			<point x="486" y="-13"/>
			<point x="532" y="29"/>
			<point x="532" y="185" type="curve" smooth="yes"/>
			<point x="532" y="265"/>
			<point x="485" y="306"/>
		</contour>
		<contour>
			<point x="300" y="518" type="curve" smooth="yes"/>
			<point x="410" y="518"/>
			<point x="425" y="499"/>
			<point x="425" y="443" type="curve" smooth="yes"/>
			<point x="425" y="371"/>
			<point x="410" y="353"/>
			<point x="300" y="353" type="curve" smooth="yes"/>
			<point x="189" y="353"/>
			<point x="175" y="371"/>
			<point x="175" y="443" type="curve" smooth="yes"/>
			<point x="175" y="499"/>
			<point x="189" y="518"/>
		</contour>
		<contour>
			<point x="300" y="72" type="curve" smooth="yes"/>
			<point x="174" y="72"/>
			<point x="158" y="90"/>
			<point x="158" y="181" type="curve" smooth="yes"/>
			<point x="158" y="248"/>
			<point x="174" y="268"/>
			<point x="300" y="268" type="curve" smooth="yes"/>
			<point x="426" y="268"/>
			<point x="442" y="248"/>
			<point x="442" y="181" type="curve" smooth="yes"/>
			<point x="442" y="90"/>
			<point x="426" y="72"/>
		</contour>
	</outline>
</glyph>
<glyph name="colon" format="2">
	<advance width="600"/>
	<unicode hex="003A"/>
	<outline>
		<contour>
			<point x="374" y="282" type="line"/>
			<point x="374" y="430" type="line"/>
			<point x="226" y="430" type="line"/>
			<point x="226" y="282" type="line"/>
		</contour>
		<contour>
			<point x="374" y="0" type="line"/>
			<point x="374" y="148" type="line"/>
			<point x="226" y="148" type="line"/>
			<point x="226" y="0" type="line"/>
		</contour>
	</outline>
</glyph>
<glyph name="less" format="2">
	<advance width="600"/>
	<unicode hex="003C"/>
	<outline>
		<contour>
			<point x="60" y="229" type="line"/>
			<point x="540" y="29" type="line"/>
			<point x="540" y="114" type="line"/>
			<point x="175" y="271" type="line"/>
			<point x="540" y="428" type="line"/>
			<point x="540" y="513" type="line"/>
			<point x="60" y="314" type="line"/>
		</contour>
	</outline>
</glyph>
<glyph name="equal" format="2">
	<advance width="600"/>
	<unicode hex="003D"/>
	<outline>
		<contour>
			<point x="65" y="381" type="line"/>
			<point x="65" y="296" type="line"/>
			<point x="535" y="296" type="line"/>
			<point x="535" y="381" type="line"/>
		</contour>
		<contour>
			<point x="65" y="212" type="line"/>
			<point x="65" y="127" type="line"/>
			<point x="535" y="127" type="line"/>
			<point x="535" y="212" type="line"/>
		</contour>
	</outline>
</glyph>
<glyph name="at" format="2">
	<advance width="600"/>
	<unicode hex="0040"/>
	<outline>
		<contour>
			<point x="373" y="-173" type="line"/>
			<point x="373" y="-83" type="line"/>
			<point x="276" y="-83" type="line"/>
			<point x="170" y="-83"/>
			<point x="112" y="-3"/>
			<point x="112" y="82" type="curve" smooth="yes"/>
			<point x="112" y="315" type="line" smooth="yes"/>
			<point x="112" y="460"/>
			<point x="126" y="513"/>
			<point x="304" y="513" type="curve" smooth="yes"/>
			<point x="466" y="513"/>
			<point x="487" y="492"/>
			<point x="488" y="347" type="curve"/>
			<point x="463" y="388"/>
			<point x="430" y="430"/>
			<point x="367" y="430" type="curve" smooth="yes"/>
			<point x="212" y="430"/>
			<point x="186" y="351"/>
			<point x="186" y="201" type="curve" smooth="yes"/>
			<point x="186" y="51"/>
			<point x="212" y="-13"/>
			<point x="367" y="-13" type="curve" smooth="yes"/>
			<point x="430" y="-13"/>
			<point x="458" y="24"/>
			<point x="488" y="64" type="curve"/>
			<point x="488" y="0" type="line"/>
			<point x="578" y="0" type="line"/>
			<point x="578" y="315" type="line" smooth="yes"/>
			<point x="578" y="553"/>
			<point x="565" y="603"/>
			<point x="304" y="603" type="curve" smooth="yes"/>
			<point x="65" y="603"/>
			<point x="22" y="531"/>
			<point x="22" y="315" type="curve" smooth="yes"/>
			<point x="22" y="79" type="line" smooth="yes"/>
			<point x="22" y="-67"/>
			<point x="117" y="-173"/>
			<point x="266" y="-173" type="curve"/>
		</contour>
		<contour>
			<point x="488" y="248" type="curve"/>
			<point x="488" y="166" type="line"/>
			<point x="442" y="97"/>
			<point x="426" y="77"/>
			<point x="367" y="77" type="curve" smooth="yes"/>
			<point x="285" y="77"/>
			<point x="276" y="122"/>
			<point x="276" y="202" type="curve" smooth="yes"/>
			<point x="276" y="281"/>
			<point x="285" y="340"/>
			<point x="367" y="340" type="curve" smooth="yes"/>
			<point x="426" y="340"/>
			<point x="442" y="317"/>
		</contour>
	</outline>
</glyph>
<glyph name="A" format="2">
	<advance width="600"/>
	<unicode hex="0041"/>
	<anchor x="300" y="599" name="top"/>
	<outline>
		<contour>
			<point x="416.908" y="133" type="line"/>
			<point x="455" y="1" type="line"/>
			<point x="558" y="1" type="line"/>
			<point x="394" y="590" type="line"/>
			<point x="205" y="590" type="line"/>
			<point x="41" y="1" type="line"/>
			<point x="144" y="1" type="line"/>
			<point x="182.092" y="133" type="line"/>
		</contour>
		<contour>
			<point x="392.379" y="218" type="line"/>
			<point x="206.621" y="218" type="line"/>
			<point x="288" y="500" type="line"/>
			<point x="311" y="500" type="line"/>
		</contour>
	</outline>
</glyph>
<glyph name="B" format="2">
	<advance width="600"/>
	<unicode hex="0042"/>
	<anchor x="272" y="600" name="top"/>
	<outline>
		<contour>
			<point x="333" y="590" type="curve" smooth="yes"/>
			<point x="52" y="590" type="line"/>
			<point x="52" y="0" type="line"/>
			<point x="343" y="0" type="line" smooth="yes"/>
			<point x="480" y="0"/>
			<point x="549" y="64"/>
			<point x="549" y="170" type="curve" smooth="yes"/>
			<point x="549" y="240"/>
			<point x="508" y="291"/>
			<point x="430" y="300" type="curve"/>
			<point x="430" y="303" type="line"/>
			<point x="497" y="314"/>
			<point x="532" y="361"/>
			<point x="532" y="437" type="curve" smooth="yes"/>
			<point x="532" y="539"/>
			<point x="455" y="590"/>
		</contour>
		<contour>
			<point x="152" y="500" type="line"/>
			<point x="333" y="500" type="line" smooth="yes"/>
			<point x="403" y="500"/>
			<point x="430" y="473"/>
			<point x="430" y="423" type="curve" smooth="yes"/>
			<point x="430" y="368"/>
			<point x="391" y="340"/>
			<point x="327" y="340" type="curve" smooth="yes"/>
			<point x="152" y="340" type="line"/>
		</contour>
		<contour>
			<point x="152" y="252" type="line"/>
			<point x="346" y="252" type="line" smooth="yes"/>
			<point x="405" y="252"/>
			<point x="446" y="232"/>
			<point x="445" y="177" type="curve" smooth="yes"/>
			<point x="444" y="122"/>
			<point x="410" y="90"/>
			<point x="341" y="90" type="curve" smooth="yes"/>
			<point x="152" y="90" type="line"/>
		</contour>
	</outline>
</glyph>
<glyph name="D" format="2">
	<advance width="600"/>
	<unicode hex="0044"/>
	<outline>
		<contour>
			<point x="550" y="315" type="curve" smooth="yes"/>
			<point x="550" y="488"/>
			<point x="479" y="590"/>
			<point x="293" y="590" type="curve" smooth="yes"/>
			<point x="50" y="590" type="line"/>
			<point x="50" y="0" type="line"/>
			<point x="295" y="0" type="line" smooth="yes"/>
			<point x="471" y="0"/>
			<point x="550" y="74"/>
		</contour>
		<contour>
			<point x="406" y="90"/>
			<point x="298" y="90" type="curve" smooth="yes"/>
			<point x="150" y="90" type="line"/>
			<point x="150" y="500" type="line"/>
			<point x="298" y="500" type="line" smooth="yes"/>
			<point x="407" y="500"/>
			<point x="450" y="436"/>
			<point x="450" y="309" type="curve" smooth="yes"/>
			<point x="450" y="143"/>
		</contour>
	</outline>
</glyph>
<glyph name="E" format="2">
	<advance width="600"/>
	<unicode hex="0045"/>
	<anchor x="300" y="602" name="top"/>
	<outline>
		<contour>
			<point x="182" y="500" type="line"/>
			<point x="518" y="500" type="line"/>
			<point x="518" y="590" type="line"/>
			<point x="82" y="590" type="line"/>
			<point x="82" y="0" type="line"/>
			<point x="518" y="0" type="line"/>
			<point x="518" y="90" type="line"/>
			<point x="182" y="90" type="line"/>
			<point x="182" y="254" type="line"/>
			<point x="469" y="254" type="line"/>
			<point x="469" y="344" type="line"/>
			<point x="182" y="344" type="line"/>
		</contour>
	</outline>
</glyph>
<glyph name="I" format="2">
	<advance width="600"/>
	<unicode hex="0049"/>
	<anchor x="300" y="594" name="top"/>
	<outline>
		<contour>
			<point x="251" y="590" type="line"/>
			<point x="251" y="0" type="line"/>
			<point x="351" y="0" type="line"/>
			<point x="351" y="590" type="line"/>
		</contour>
		<contour>
			<point x="72" y="590" type="line"/>
			<point x="72" y="505" type="line"/>
			<point x="529" y="505" type="line"/>
			<point x="529" y="590" type="line"/>
		</contour>
		<contour>
			<point x="72" y="85" type="line"/>
			<point x="72" y="0" type="line"/>
			<point x="529" y="0" type="line"/>
			<point x="529" y="85" type="line"/>
		</contour>
	</outline>
</glyph>
<glyph name="J" format="2">
	<advance width="600"/>
	<unicode hex="004A"/>
	<outline>
		<contour>
			<point x="264" y="-1" type="curve"/>
			<point x="185" y="-1"/>
			<point x="92" y="44"/>
			<point x="92" y="44" type="curve"/>
			<point x="126" y="130" type="line"/>
			<point x="126" y="130"/>
			<point x="190" y="94"/>
			<point x="262" y="94" type="curve"/>
			<point x="365" y="94"/>
			<point x="410" y="129"/>
			<point x="412" y="224" type="curve"/>
			<point x="412" y="499" type="line"/>
			<point x="119" y="499" type="line"/>
			<point x="119" y="589" type="line"/>
			<point x="507" y="589" type="line"/>
			<point x="507" y="213" type="line"/>
			<point x="507" y="212" type="line"/>
			<point x="503" y="48"/>
			<point x="380" y="-1"/>
		</contour>
	</outline>
</glyph>
<glyph name="M" format="2">
	<advance width="600"/>
	<unicode hex="004D"/>
	<guideline x="299" y="196" angle="270"/>
	<guideline x="321" y="174" angle="270"/>
	<outline>
		<contour>
			<point x="551" y="590" type="line"/>
			<point x="407" y="590" type="line"/>
			<point x="298" y="238" type="line"/>
			<point x="189" y="590" type="line"/>
			<point x="48" y="590" type="line"/>
			<point x="48" y="0" type="line"/>
			<point x="148" y="0" type="line"/>
			<point x="147" y="464" type="line"/>
			<point x="249" y="124" type="line"/>
			<point x="347" y="124" type="line"/>
			<point x="452" y="464" type="line"/>
			<point x="451" y="0" type="line"/>
			<point x="551" y="0" type="line"/>
		</contour>
	</outline>
</glyph>
<glyph name="O" format="2">
	<advance width="600"/>
	<unicode hex="004F"/>
	<anchor x="300" y="603" name="top"/>
	<outline>
		<contour>
			<point x="299" y="603" type="curve" smooth="yes"/>
			<point x="93" y="603"/>
			<point x="37" y="513"/>
			<point x="37" y="315" type="curve" smooth="yes"/>
			<point x="37" y="79"/>
			<point x="93" y="-13"/>
			<point x="299" y="-13" type="curve" smooth="yes"/>
			<point x="505" y="-13"/>
			<point x="563" y="79"/>
			<point x="563" y="315" type="curve" smooth="yes"/>
			<point x="563" y="513"/>
			<point x="505" y="603"/>
		</contour>
		<contour>
			<point x="299" y="82" type="curve" smooth="yes"/>
			<point x="143" y="82"/>
			<point x="137" y="139"/>
			<point x="137" y="314" type="curve" smooth="yes"/>
			<point x="137" y="447"/>
			<point x="143" y="508"/>
			<point x="299" y="508" type="curve" smooth="yes"/>
			<point x="455" y="508"/>
			<point x="463" y="447"/>
			<point x="463" y="314" type="curve" smooth="yes"/>
			<point x="463" y="139"/>
			<point x="455" y="82"/>
		</contour>
	</outline>
</glyph>
<glyph name="S" format="2">
	<advance width="600"/>
	<unicode hex="0053"/>
	<anchor x="299" y="603" name="top"/>
	<outline>
		<contour>
			<point x="459" y="416" type="curve"/>
			<point x="559" y="416" type="line"/>
			<point x="559" y="547"/>
			<point x="486" y="603"/>
			<point x="295" y="603" type="curve" smooth="yes"/>
			<point x="93" y="603"/>
			<point x="37" y="532"/>
			<point x="37" y="420" type="curve" smooth="yes"/>
			<point x="37" y="288"/>
			<point x="135" y="256"/>
			<point x="296" y="249" type="curve" smooth="yes"/>
			<point x="426" y="243"/>
			<point x="461" y="231"/>
			<point x="461" y="171" type="curve" smooth="yes"/>
			<point x="461" y="100"/>
			<point x="420" y="82"/>
			<point x="299" y="82" type="curve" smooth="yes"/>
			<point x="203" y="82"/>
			<point x="142" y="93"/>
			<point x="142" y="162" type="curve"/>
			<point x="42" y="162" type="line"/>
			<point x="42" y="40"/>
			<point x="120" y="-13"/>
			<point x="299" y="-13" type="curve" smooth="yes"/>
			<point x="498" y="-13"/>
			<point x="562" y="39"/>
			<point x="561" y="171" type="curve" smooth="yes"/>
			<point x="560" y="291"/>
			<point x="497" y="338"/>
			<point x="309" y="344" type="curve" smooth="yes"/>
			<point x="173" y="348"/>
			<point x="137" y="360"/>
			<point x="137" y="423" type="curve" smooth="yes"/>
			<point x="137" y="480"/>
			<point x="154" y="508"/>
			<point x="295" y="508" type="curve" smooth="yes"/>
			<point x="406" y="508"/>
			<point x="459" y="493"/>
		</contour>
	</outline>
</glyph>
<glyph name="X" format="2">
	<advance width="600"/>
	<unicode hex="0058"/>
	<outline>
		<contour>
			<point x="359" y="302" type="line"/>
			<point x="555" y="590" type="line"/>
			<point x="436" y="590" type="line"/>
			<point x="300" y="395" type="line"/>
			<point x="164" y="590" type="line"/>
			<point x="45" y="590" type="line"/>
			<point x="241" y="302" type="line"/>
			<point x="56" y="0" type="line"/>
			<point x="174" y="0" type="line"/>
			<point x="300" y="209" type="line"/>
			<point x="426" y="0" type="line"/>
			<point x="544" y="0" type="line"/>
		</contour>
	</outline>
</glyph>
<glyph name="Y" format="2">
	<advance width="600"/>
	<unicode hex="0059"/>
	<anchor x="300" y="603" name="top"/>
	<outline>
		<contour>
			<point x="564" y="590" type="line"/>
			<point x="454" y="590" type="line"/>
			<point x="300" y="326" type="line"/>
			<point x="142" y="590" type="line"/>
			<point x="36" y="590" type="line"/>
			<point x="250" y="221" type="line"/>
			<point x="250" y="0" type="line"/>
			<point x="350" y="0" type="line"/>
			<point x="350" y="221" type="line"/>
		</contour>
	</outline>
</glyph>
<glyph name="Z" format="2">
	<advance width="600"/>
	<unicode hex="005A"/>
	<anchor x="293" y="603" name="top"/>
	<outline>
		<contour>
			<point x="540" y="490" type="line"/>
			<point x="540" y="590" type="line"/>
			<point x="61" y="590" type="line"/>
			<point x="61" y="490" type="line"/>
			<point x="408" y="490" type="line"/>
			<point x="61" y="100" type="line"/>
			<point x="61" y="0" type="line"/>
			<point x="540" y="0" type="line"/>
			<point x="540" y="100" type="line"/>
			<point x="192" y="100" type="line"/>
		</contour>
	</outline>
</glyph>
<glyph name="bracketleft" format="2">
	<advance width="600"/>
	<unicode hex="005B"/>
	<outline>
		<contour>
			<point x="428" y="-173" type="line"/>
			<point x="428" y="-88" type="line"/>
			<point x="262" y="-88" type="line"/>
			<point x="262" y="505" type="line"/>
			<point x="428" y="505" type="line"/>
			<point x="428" y="590" type="line"/>
			<point x="172" y="590" type="line"/>
			<point x="172" y="-173" type="line"/>
		</contour>
	</outline>
</glyph>
<glyph name="backslash" format="2">
	<advance width="600"/>
	<unicode hex="005C"/>
	<outline>
		<contour>
			<point x="185" y="603" type="line"/>
			<point x="325" y="-80" type="line"/>
			<point x="416" y="-80" type="line"/>
			<point x="276" y="603" type="line"/>
		</contour>
	</outline>
</glyph>
<glyph name="underscore" format="2">
	<advance width="600"/>
	<unicode hex="005F"/>
	<outline>
		<contour>
			<point x="45" y="-75" type="line"/>
			<point x="45" y="-160" type="line"/>
			<point x="556" y="-160" type="line"/>
			<point x="556" y="-75" type="line"/>
		</contour>
	</outline>
</glyph>
<glyph name="b" format="2">
	<advance width="600"/>
	<unicode hex="0062"/>
	<outline>
		<contour>
			<point x="151" y="277" type="line"/>
			<point x="247" y="346"/>
			<point x="278" y="363"/>
			<point x="342" y="363" type="curve" smooth="yes"/>
			<point x="424" y="363"/>
			<point x="449" y="325"/>
			<point x="449" y="216" type="curve"/>
			<point x="449" y="107"/>
			<point x="424" y="69"/>
			<point x="342" y="69" type="curve" smooth="yes"/>
			<point x="278" y="69"/>
			<point x="247" y="86"/>
			<point x="151" y="155" type="curve"/>
		</contour>
		<contour>
			<point x="151" y="378" type="curve"/>
			<point x="151" y="603" type="line"/>
			<point x="61" y="603" type="line"/>
			<point x="61" y="0" type="line"/>
			<point x="151" y="0" type="line"/>
			<point x="151" y="54" type="line"/>
			<point x="228" y="6"/>
			<point x="262" y="-12"/>
			<point x="345" y="-12" type="curve" smooth="yes"/>
			<point x="480" y="-12"/>
			<point x="539" y="36"/>
			<point x="539" y="216" type="curve"/>
			<point x="539" y="396"/>
			<point x="480" y="444"/>
			<point x="345" y="444" type="curve" smooth="yes"/>
			<point x="262" y="444"/>
			<point x="228" y="426"/>
		</contour>
	</outline>
</glyph>
<glyph name="g" format="2">
	<advance width="600"/>
	<unicode hex="0067"/>
	<guideline x="557" y="118" angle="270"/>
	<outline>
		<contour>
			<point x="172" y="-39" type="curve"/>
			<point x="72" y="-39" type="line"/>
			<point x="80" y="-163"/>
			<point x="177" y="-173"/>
			<point x="321" y="-173" type="curve" smooth="yes"/>
			<point x="446" y="-173"/>
			<point x="539" y="-124"/>
			<point x="539" y="15" type="curve" smooth="yes"/>
			<point x="539" y="430" type="line"/>
			<point x="449" y="430" type="line"/>
			<point x="449" y="377" type="line"/>
			<point x="373" y="424"/>
			<point x="339" y="442"/>
			<point x="256" y="442" type="curve" smooth="yes"/>
			<point x="121" y="442"/>
			<point x="62" y="394"/>
			<point x="62" y="214" type="curve" smooth="yes"/>
			<point x="62" y="34"/>
			<point x="121" y="-14"/>
			<point x="256" y="-14" type="curve" smooth="yes"/>
			<point x="339" y="-14"/>
			<point x="373" y="4"/>
			<point x="449" y="51" type="curve"/>
			<point x="449" y="22" type="line" smooth="yes"/>
			<point x="449" y="-51"/>
			<point x="422" y="-93"/>
			<point x="299" y="-93" type="curve" smooth="yes"/>
			<point x="220" y="-93"/>
			<point x="180" y="-75"/>
		</contour>
		<contour>
			<point x="449" y="276" type="curve"/>
			<point x="449" y="152" type="line"/>
			<point x="354" y="84"/>
			<point x="323" y="67"/>
			<point x="259" y="67" type="curve" smooth="yes"/>
			<point x="177" y="67"/>
			<point x="152" y="105"/>
			<point x="152" y="214" type="curve" smooth="yes"/>
			<point x="152" y="323"/>
			<point x="177" y="361"/>
			<point x="259" y="361" type="curve" smooth="yes"/>
			<point x="323" y="361"/>
			<point x="354" y="344"/>
		</contour>
	</outline>
</glyph>
<glyph name="k" format="2">
	<advance width="568"/>
	<unicode hex="006B"/>
	<outline>
		<contour>
			<point x="353" y="218" type="line"/>
			<point x="512" y="430" type="line"/>
			<point x="402" y="430" type="line"/>
			<point x="279" y="263" type="line"/>
			<point x="146" y="263" type="line"/>
			<point x="146" y="590" type="line"/>
			<point x="56" y="590" type="line"/>
			<point x="56" y="0" type="line"/>
			<point x="146" y="0" type="line"/>
			<point x="146" y="178" type="line"/>
			<point x="274" y="178" type="line"/>
			<point x="392" y="0" type="line"/>
			<point x="499" y="0" type="line"/>
		</contour>
	</outline>
</glyph>
<glyph name="l" format="2">
	<advance width="600"/>
	<unicode hex="006C"/>
	<outline>
		<contour>
			<point x="254" y="590" type="line"/>
			<point x="254" y="0" type="line"/>
			<point x="344" y="0" type="line"/>
			<point x="344" y="590" type="line"/>
		</contour>
		<contour>
			<point x="81" y="84" type="line"/>
			<point x="81" y="-1" type="line"/>
			<point x="520" y="-1" type="line"/>
			<point x="520" y="84" type="line"/>
		</contour>
		<contour>
			<point x="80" y="590" type="line"/>
			<point x="80" y="505" type="line"/>
			<point x="334" y="505" type="line"/>
			<point x="334" y="590" type="line"/>
		</contour>
	</outline>
</glyph>
<glyph name="n" format="2">
	<advance width="600"/>
	<unicode hex="006E"/>
	<anchor x="300" y="443" name="_top"/>
	<outline>
		<contour>
			<point x="437" y="272" type="curve"/>
			<point x="437" y="0" type="line"/>
			<point x="527" y="0" type="line"/>
			<point x="527" y="315" type="line"/>
			<point x="526" y="402"/>
			<point x="477" y="442"/>
			<point x="377" y="442" type="curve"/>
			<point x="288" y="442"/>
			<point x="236" y="419"/>
			<point x="163" y="325" type="curve"/>
			<point x="164" y="430" type="line"/>
			<point x="74" y="430" type="line"/>
			<point x="74" y="0" type="line"/>
			<point x="164" y="0" type="line"/>
			<point x="164" y="210" type="line"/>
			<point x="209" y="264" type="line" smooth="yes"/>
			<point x="274" y="342"/>
			<point x="308" y="357"/>
			<point x="366" y="357" type="curve"/>
			<point x="420" y="357"/>
			<point x="437" y="331"/>
		</contour>
	</outline>
</glyph>
<glyph name="o" format="2">
	<advance width="600"/>
	<unicode hex="006F"/>
	<anchor x="300" y="443" name="top"/>
	<outline>
		<contour>
			<point x="300" y="72" type="curve" smooth="yes"/>
			<point x="164" y="72"/>
			<point x="148" y="104"/>
			<point x="148" y="215" type="curve" smooth="yes"/>
			<point x="148" y="326"/>
			<point x="164" y="358"/>
			<point x="300" y="358" type="curve" smooth="yes"/>
			<point x="436" y="358"/>
			<point x="452" y="326"/>
			<point x="452" y="215" type="curve" smooth="yes"/>
			<point x="452" y="104"/>
			<point x="436" y="72"/>
		</contour>
		<contour>
			<point x="300" y="-13" type="curve" smooth="yes"/>
			<point x="496" y="-13"/>
			<point x="542" y="49"/>
			<point x="542" y="215" type="curve" smooth="yes"/>
			<point x="542" y="381"/>
			<point x="496" y="443"/>
			<point x="300" y="443" type="curve" smooth="yes"/>
			<point x="104" y="443"/>
			<point x="58" y="381"/>
			<point x="58" y="215" type="curve" smooth="yes"/>
			<point x="58" y="49"/>
			<point x="104" y="-13"/>
		</contour>
	</outline>
</glyph>
<glyph name="r" format="2">
	<advance width="600"/>
	<unicode hex="0072"/>
	<guideline x="125" y="380" angle="0"/>
	<outline>
		<contour>
			<point x="437" y="276" type="curve"/>
			<point x="527" y="276" type="line"/>
			<point x="527" y="315" type="line"/>
			<point x="526" y="402"/>
			<point x="477" y="442"/>
			<point x="377" y="442" type="curve"/>
			<point x="288" y="442"/>
			<point x="236" y="419"/>
			<point x="163" y="325" type="curve"/>
			<point x="164" y="430" type="line"/>
			<point x="74" y="430" type="line"/>
			<point x="74" y="0" type="line"/>
			<point x="164" y="0" type="line"/>
			<point x="164" y="210" type="line"/>
			<point x="209" y="264" type="line" smooth="yes"/>
			<point x="274" y="342"/>
			<point x="308" y="357"/>
			<point x="366" y="357" type="curve"/>
			<point x="419" y="357"/>
			<point x="436" y="332"/>
		</contour>
	</outline>
</glyph>
<glyph name="t" format="2">
	<advance width="600"/>
	<unicode hex="0074"/>
	<outline>
		<contour>
			<point x="39" y="430" type="line"/>
			<point x="39" y="345" type="line"/>
			<point x="165" y="345" type="line"/>
			<point x="165" y="134" type="line" smooth="yes"/>
			<point x="165" y="42"/>
			<point x="219" y="-1"/>
			<point x="298" y="-1" type="curve"/>
			<point x="360" y="-1"/>
			<point x="463" y="35"/>
			<point x="560" y="116" type="curve"/>
			<point x="514" y="183" type="line"/>
			<point x="410" y="107"/>
			<point x="339" y="88"/>
			<point x="300" y="88" type="curve"/>
			<point x="247" y="88"/>
			<point x="255" y="161"/>
			<point x="255" y="189" type="curve" smooth="yes"/>
			<point x="255" y="345" type="line"/>
			<point x="526" y="345" type="line"/>
			<point x="526" y="430" type="line"/>
			<point x="255" y="430" type="line"/>
			<point x="255" y="590" type="line"/>
			<point x="165" y="560" type="line"/>
			<point x="165" y="430" type="line"/>
		</contour>
	</outline>
</glyph>
<glyph name="w" format="2">
	<advance width="600"/>
	<unicode hex="0077"/>
	<anchor x="300" y="443" name="top"/>
	<outline>
		<contour>
			<point x="338" y="331" type="line"/>
			<point x="262" y="331" type="line"/>
			<point x="197" y="133" type="line"/>
			<point x="116" y="430" type="line"/>
			<point x="24" y="430" type="line"/>
			<point x="137" y="0" type="line"/>
			<point x="228" y="0" type="line"/>
			<point x="300" y="212" type="line"/>
			<point x="372" y="0" type="line"/>
			<point x="463" y="0" type="line"/>
			<point x="576" y="430" type="line"/>
			<point x="484" y="430" type="line"/>
			<point x="403" y="133" type="line"/>
		</contour>
	</outline>
</glyph>
<glyph name="x" format="2">
	<advance width="600"/>
	<unicode hex="0078"/>
	<outline>
		<contour>
			<point x="359" y="219" type="line"/>
			<point x="546" y="430" type="line"/>
			<point x="428" y="430" type="line"/>
			<point x="300" y="287" type="line"/>
			<point x="172" y="430" type="line"/>
			<point x="54" y="430" type="line"/>
			<point x="241" y="219" type="line"/>
			<point x="54" y="0" type="line"/>
			<point x="171" y="0" type="line"/>
			<point x="300" y="152" type="line"/>
			<point x="429" y="0" type="line"/>
			<point x="546" y="0" type="line"/>
		</contour>
	</outline>
</glyph>
<glyph name="y" format="2">
	<advance width="600"/>
	<unicode hex="0079"/>
	<guideline x="-31" y="660" angle="0"/>
	<anchor x="324" y="443" name="top"/>
	<outline>
		<contour>
			<point x="557" y="430" type="line"/>
			<point x="462" y="430" type="line"/>
			<point x="335" y="86" type="line"/>
			<point x="308" y="86" type="line"/>
			<point x="181" y="430" type="line"/>
			<point x="86" y="430" type="line"/>
			<point x="244" y="1" type="line"/>
			<point x="308" y="1" type="line"/>
			<point x="280" y="-52"/>
			<point x="253" y="-76"/>
			<point x="209" y="-76" type="curve" smooth="yes"/>
			<point x="154" y="-76"/>
			<point x="137" y="-43"/>
			<point x="122" y="-21" type="curve"/>
			<point x="43" y="-52" type="line"/>
			<point x="67" y="-111"/>
			<point x="134" y="-161"/>
			<point x="206" y="-161" type="curve" smooth="yes"/>
			<point x="278" y="-161"/>
			<point x="356" y="-110"/>
			<point x="399" y="1" type="curve"/>
		</contour>
	</outline>
</glyph>
<glyph name="z" format="2">
	<advance width="600"/>
	<unicode hex="007A"/>
	<outline>
		<contour>
			<point x="534" y="340" type="line"/>
			<point x="534" y="430" type="line"/>
			<point x="66" y="430" type="line"/>
			<point x="66" y="340" type="line"/>
			<point x="393" y="340" type="line"/>
			<point x="65" y="90" type="line"/>
			<point x="65" y="0" type="line"/>
			<point x="526" y="0" type="line"/>
			<point x="526" y="90" type="line"/>
			<point x="205" y="90" type="line"/>
		</contour>
	</outline>
</glyph>
<glyph name="braceleft" format="2">
	<advance width="600"/>
	<unicode hex="007B"/>
	<outline>
		<contour>
			<point x="452" y="515" type="curve"/>
			<point x="432" y="603" type="line"/>
			<point x="239" y="570"/>
			<point x="236" y="391"/>
			<point x="230" y="325" type="curve" smooth="yes"/>
			<point x="227" y="290"/>
			<point x="206" y="285"/>
			<point x="149" y="285" type="curve"/>
			<point x="149" y="225" type="line"/>
			<point x="206" y="225"/>
			<point x="227" y="220"/>
			<point x="230" y="185" type="curve" smooth="yes"/>
			<point x="236" y="119"/>
			<point x="239" y="-60"/>
			<point x="432" y="-93" type="curve"/>
			<point x="452" y="-5" type="line"/>
			<point x="352" y="20"/>
			<point x="326" y="119"/>
			<point x="319" y="185" type="curve" smooth="yes"/>
			<point x="314" y="233"/>
			<point x="300" y="243"/>
			<point x="289" y="255" type="curve"/>
			<point x="300" y="267"/>
			<point x="314" y="277"/>
			<point x="319" y="325" type="curve" smooth="yes"/>
			<point x="326" y="391"/>
			<point x="352" y="490"/>
		</contour>
	</outline>
</glyph>
<glyph name="bar" format="2">
	<advance width="600"/>
	<unicode hex="007C"/>
	<outline>
		<contour>
			<point x="345" y="603" type="line"/>
			<point x="255" y="603" type="line"/>
			<point x="255" y="0" type="line"/>
			<point x="345" y="0" type="line"/>
		</contour>
	</outline>
</glyph>
<glyph name="braceright" format="2">
	<advance width="600"/>
	<unicode hex="007D"/>
	<outline>
		<contour>
			<point x="149" y="515" type="line"/>
			<point x="249" y="490"/>
			<point x="275" y="391"/>
			<point x="282" y="325" type="curve" smooth="yes"/>
			<point x="287" y="277"/>
			<point x="301" y="267"/>
			<point x="312" y="255" type="curve"/>
			<point x="301" y="243"/>
			<point x="287" y="233"/>
			<point x="282" y="185" type="curve" smooth="yes"/>
			<point x="275" y="119"/>
			<point x="249" y="20"/>
			<point x="149" y="-5" type="curve"/>
			<point x="169" y="-93" type="line"/>
			<point x="362" y="-60"/>
			<point x="365" y="119"/>
			<point x="371" y="185" type="curve" smooth="yes"/>
			<point x="374" y="220"/>
			<point x="395" y="225"/>
			<point x="452" y="225" type="curve"/>
			<point x="452" y="285" type="line"/>
			<point x="395" y="285"/>
			<point x="374" y="290"/>
			<point x="371" y="325" type="curve" smooth="yes"/>
			<point x="365" y="391"/>
			<point x="362" y="570"/>
			<point x="169" y="603" type="curve"/>
		</contour>
	</outline>
</glyph>
<glyph name="cent" format="2">
	<advance width="600"/>
	<unicode hex="00A2"/>
	<outline>
		<contour>
			<point x="539" y="147" type="curve"/>
			<point x="448" y="147" type="line"/>
			<point x="437" y="90"/>
			<point x="403" y="72"/>
			<point x="300" y="72" type="curve" smooth="yes"/>
			<point x="164" y="72"/>
			<point x="148" y="104"/>
			<point x="148" y="215" type="curve" smooth="yes"/>
			<point x="148" y="326"/>
			<point x="164" y="358"/>
			<point x="300" y="358" type="curve" smooth="yes"/>
			<point x="419" y="358"/>
			<point x="446" y="333"/>
			<point x="451" y="253" type="curve"/>
			<point x="541" y="253" type="line"/>
			<point x="534" y="391"/>
			<point x="480" y="443"/>
			<point x="300" y="443" type="curve" smooth="yes"/>
			<point x="104" y="443"/>
			<point x="58" y="381"/>
			<point x="58" y="215" type="curve" smooth="yes"/>
			<point x="58" y="49"/>
			<point x="104" y="-13"/>
			<point x="300" y="-13" type="curve" smooth="yes"/>
			<point x="467" y="-13"/>
			<point x="525" y="32"/>
		</contour>
		<contour>
			<point x="256" y="527" type="line"/>
			<point x="256" y="-93" type="line"/>
			<point x="346" y="-93" type="line"/>
			<point x="346" y="527" type="line"/>
		</contour>
	</outline>
</glyph>
<glyph name="brokenbar" format="2">
	<advance width="600"/>
	<unicode hex="00A6"/>
	<outline>
		<contour>
			<point x="255" y="348" type="line"/>
			<point x="345" y="348" type="line"/>
			<point x="345" y="603" type="line"/>
			<point x="255" y="603" type="line"/>
		</contour>
		<contour>
			<point x="255" y="0" type="line"/>
			<point x="345" y="0" type="line"/>
			<point x="345" y="255" type="line"/>
			<point x="255" y="255" type="line"/>
		</contour>
	</outline>
</glyph>
<glyph name="dieresis" format="2">
	<advance width="600"/>
	<unicode hex="00A8"/>
	<anchor x="296" y="443" name="_top"/>
	<outline>
		<contour>
			<point x="263" y="661" type="line"/>
			<point x="115" y="661" type="line"/>
			<point x="115" y="513" type="line"/>
			<point x="263" y="513" type="line"/>
		</contour>
		<contour>
			<point x="473" y="661" type="line"/>
			<point x="325" y="661" type="line"/>
			<point x="325" y="513" type="line"/>
			<point x="473" y="513" type="line"/>
		</contour>
	</outline>
</glyph>
<glyph name="logicalnot" format="2">
	<advance width="600"/>
	<unicode hex="00AC"/>
	<outline>
		<contour>
			<point x="517" y="118" type="line"/>
			<point x="517" y="366" type="line"/>
			<point x="83" y="366" type="line"/>
			<point x="83" y="281" type="line"/>
			<point x="427" y="281" type="line"/>
			<point x="427" y="117" type="line"/>
		</contour>
	</outline>
</glyph>
<glyph name="registered" format="2">
	<advance width="600"/>
	<unicode hex="00AE"/>
	<outline>
		<contour>
			<point x="302" y="246" type="curve" smooth="yes"/>
			<point x="182" y="246"/>
			<point x="165" y="293"/>
			<point x="165" y="397" type="curve" smooth="yes"/>
			<point x="165" y="502"/>
			<point x="182" y="554"/>
			<point x="302" y="554" type="curve" smooth="yes"/>
			<point x="420" y="554"/>
			<point x="434" y="502"/>
			<point x="434" y="397" type="curve" smooth="yes"/>
			<point x="434" y="291"/>
			<point x="420" y="246"/>
		</contour>
		<contour>
			<point x="302" y="210" type="curve" smooth="yes"/>
			<point x="462" y="210"/>
			<point x="472" y="291"/>
			<point x="472" y="397" type="curve" smooth="yes"/>
			<point x="472" y="502"/>
			<point x="462" y="590"/>
			<point x="302" y="590" type="curve" smooth="yes"/>
			<point x="142" y="590"/>
			<point x="128" y="502"/>
			<point x="128" y="397" type="curve" smooth="yes"/>
			<point x="128" y="293"/>
			<point x="142" y="210"/>
		</contour>
		<contour>
			<point x="355" y="289" type="line"/>
			<point x="401" y="289" type="line"/>
			<point x="337" y="374" type="line"/>
			<point x="375" y="379"/>
			<point x="396" y="401"/>
			<point x="396" y="444" type="curve" smooth="yes"/>
			<point x="396" y="493"/>
			<point x="367" y="515"/>
			<point x="315" y="515" type="curve" smooth="yes"/>
			<point x="212" y="515" type="line"/>
			<point x="212" y="289" type="line"/>
			<point x="249" y="289" type="line"/>
			<point x="249" y="373" type="line"/>
			<point x="291" y="373" type="line"/>
		</contour>
		<contour>
			<point x="249" y="410" type="line"/>
			<point x="249" y="478" type="line"/>
			<point x="314" y="478" type="line" smooth="yes"/>
			<point x="340" y="478"/>
			<point x="358" y="471"/>
			<point x="358" y="444" type="curve" smooth="yes"/>
			<point x="358" y="418"/>
			<point x="342" y="410"/>
			<point x="315" y="410" type="curve" smooth="yes"/>
		</contour>
	</outline>
</glyph>
<glyph name="macron" format="2">
	<advance width="600"/>
	<unicode hex="00AF"/>
	<anchor x="299" y="603" name="_top"/>
	<outline>
		<contour>
			<point x="120" y="740" type="line"/>
			<point x="120" y="655" type="line"/>
			<point x="480" y="655" type="line"/>
			<point x="480" y="740" type="line"/>
		</contour>
	</outline>
</glyph>
<glyph name="acute" format="2">
	<advance width="600"/>
	<unicode hex="00B4"/>
	<anchor x="289" y="443" name="_top"/>
	<outline>
		<contour>
			<point x="401" y="671" type="line"/>
			<point x="144" y="544" type="line"/>
			<point x="167" y="486" type="line"/>
			<point x="439" y="573" type="line"/>
		</contour>
	</outline>
</glyph>
<glyph name="paragraph" format="2">
	<advance width="600"/>
	<unicode hex="00B6"/>
	<outline>
		<contour>
			<point x="522" y="603" type="line"/>
			<point x="296" y="603" type="line" smooth="yes"/>
			<point x="163" y="603"/>
			<point x="78" y="572"/>
			<point x="78" y="423" type="curve" smooth="yes"/>
			<point x="78" y="271"/>
			<point x="163" y="237"/>
			<point x="296" y="237" type="curve"/>
			<point x="296" y="-173" type="line"/>
			<point x="386" y="-173" type="line"/>
			<point x="386" y="518" type="line"/>
			<point x="432" y="518" type="line"/>
			<point x="432" y="-173" type="line"/>
			<point x="522" y="-173" type="line"/>
		</contour>
		<contour>
			<point x="297" y="518" type="curve"/>
			<point x="297" y="323" type="line"/>
			<point x="223" y="323"/>
			<point x="167" y="323"/>
			<point x="167" y="423" type="curve" smooth="yes"/>
			<point x="167" y="516"/>
			<point x="223" y="517"/>
		</contour>
	</outline>
</glyph>
<glyph name="periodcentered" format="2">
	<advance width="600"/>
	<unicode hex="00B7"/>
	<outline>
		<contour>
			<point x="374" y="139" type="line"/>
			<point x="374" y="287" type="line"/>
			<point x="226" y="287" type="line"/>
			<point x="226" y="139" type="line"/>
		</contour>
	</outline>
</glyph>
<glyph name="cedilla" format="2">
	<advance width="600"/>
	<unicode hex="00B8"/>
	<outline>
		<contour>
			<point x="302" y="-45" type="curve"/>
			<point x="324" y="4" type="line"/>
			<point x="268" y="4" type="line"/>
			<point x="235" y="-67" type="line"/>
			<point x="304" y="-88"/>
			<point x="287" y="-140"/>
			<point x="251" y="-140" type="curve" smooth="yes"/>
			<point x="222" y="-140"/>
			<point x="205" y="-131"/>
			<point x="179" y="-117" type="curve"/>
			<point x="160" y="-163" type="line"/>
			<point x="208" y="-191"/>
			<point x="256" y="-200"/>
			<point x="296" y="-185" type="curve" smooth="yes"/>
			<point x="346" y="-166"/>
			<point x="370" y="-94"/>
		</contour>
	</outline>
</glyph>
<glyph name="questiondown" format="2">
	<advance width="600"/>
	<unicode hex="00BF"/>
	<outline>
		<contour>
			<point x="388" y="395" type="curve"/>
			<point x="301" y="395" type="line"/>
			<point x="301" y="373"/>
			<point x="294" y="354"/>
			<point x="282" y="349" type="curve" smooth="yes"/>
			<point x="189" y="311"/>
			<point x="54" y="294"/>
			<point x="54" y="181" type="curve" smooth="yes"/>
			<point x="54" y="20"/>
			<point x="124" y="-13"/>
			<point x="302" y="-13" type="curve" smooth="yes"/>
			<point x="445" y="-13"/>
			<point x="546" y="21"/>
			<point x="546" y="219" type="curve"/>
			<point x="456" y="219" type="line"/>
			<point x="456" y="121"/>
			<point x="440" y="72"/>
			<point x="302" y="72" type="curve" smooth="yes"/>
			<point x="164" y="72"/>
			<point x="142" y="86"/>
			<point x="144" y="177" type="curve" smooth="yes"/>
			<point x="145" y="234"/>
			<point x="235" y="244"/>
			<point x="320" y="279" type="curve" smooth="yes"/>
			<point x="378" y="303"/>
			<point x="388" y="340"/>
		</contour>
		<contour>
			<point x="417" y="455" type="line"/>
			<point x="417" y="603" type="line"/>
			<point x="269" y="603" type="line"/>
			<point x="269" y="455" type="line"/>
		</contour>
	</outline>
</glyph>
<glyph name="AE" format="2">
	<advance width="600"/>
	<unicode hex="00C6"/>
	<outline>
		<contour>
			<point x="365" y="501" type="line"/>
			<point x="598" y="501" type="line"/>
			<point x="598" y="591" type="line"/>
			<point x="182" y="591" type="line"/>
			<point x="3" y="0" type="line"/>
			<point x="106" y="0" type="line"/>
			<point x="144" y="133" type="line"/>
			<point x="265" y="133" type="line"/>
			<point x="265" y="0" type="line"/>
			<point x="598" y="0" type="line"/>
			<point x="598" y="90" type="line"/>
			<point x="365" y="90" type="line"/>
			<point x="365" y="255" type="line"/>
			<point x="549" y="255" type="line"/>
			<point x="549" y="345" type="line"/>
			<point x="365" y="345" type="line"/>
		</contour>
		<contour>
			<point x="265" y="218" type="line"/>
			<point x="169" y="218" type="line"/>
			<point x="253" y="501" type="line"/>
			<point x="265" y="501" type="line"/>
		</contour>
	</outline>
</glyph>
<glyph name="multiply" format="2">
	<advance width="600"/>
	<unicode hex="00D7"/>
	<outline>
		<contour>
			<point x="471" y="442" type="line"/>
			<point x="65" y="63" type="line"/>
			<point x="129" y="0" type="line"/>
			<point x="535" y="379" type="line"/>
		</contour>
		<contour>
			<point x="129" y="442" type="line"/>
			<point x="65" y="379" type="line"/>
			<point x="471" y="0" type="line"/>
			<point x="535" y="63" type="line"/>
		</contour>
	</outline>
</glyph>
<glyph name="germandbls" format="2">
	<advance width="600"/>
	<unicode hex="00DF"/>
	<outline>
		<contour>
			<point x="220" y="43" type="curve"/>
			<point x="220" y="-40" type="line"/>
			<point x="236" y="-43"/>
			<point x="299" y="-53"/>
			<point x="338" y="-53" type="curve" smooth="yes"/>
			<point x="470" y="-53"/>
			<point x="559" y="12"/>
			<point x="559" y="149" type="curve" smooth="yes"/>
			<point x="559" y="259"/>
			<point x="463" y="292"/>
			<point x="422" y="300" type="curve"/>
			<point x="461" y="307"/>
			<point x="534" y="347"/>
			<point x="534" y="452" type="curve" smooth="yes"/>
			<point x="534" y="556"/>
			<point x="432" y="603"/>
			<point x="316" y="603" type="curve" smooth="yes"/>
			<point x="257" y="603"/>
			<point x="148" y="601"/>
			<point x="95" y="554" type="curve" smooth="yes"/>
			<point x="42" y="507"/>
			<point x="41" y="442"/>
			<point x="41" y="395" type="curve" smooth="yes"/>
			<point x="41" y="0" type="line"/>
			<point x="128" y="0" type="line"/>
			<point x="128" y="337" type="line" smooth="yes"/>
			<point x="128" y="425"/>
			<point x="137" y="468"/>
			<point x="163" y="490" type="curve" smooth="yes"/>
			<point x="188" y="511"/>
			<point x="230" y="519"/>
			<point x="319" y="519" type="curve" smooth="yes"/>
			<point x="399" y="519"/>
			<point x="442" y="491"/>
			<point x="442" y="441" type="curve" smooth="yes"/>
			<point x="442" y="355"/>
			<point x="396" y="338"/>
			<point x="316" y="340" type="curve" smooth="yes"/>
			<point x="272" y="341" type="line"/>
			<point x="272" y="254" type="line"/>
			<point x="316" y="255" type="line" smooth="yes"/>
			<point x="400" y="257"/>
			<point x="467" y="241"/>
			<point x="467" y="148" type="curve" smooth="yes"/>
			<point x="467" y="49"/>
			<point x="409" y="29"/>
			<point x="334" y="29" type="curve" smooth="yes"/>
			<point x="284" y="29"/>
			<point x="237" y="40"/>
		</contour>
	</outline>
</glyph>
<glyph name="ae" format="2">
	<advance width="600"/>
	<unicode hex="00E6"/>
	<outline>
		<contour>
			<point x="609" y="176" type="line"/>
			<point x="609" y="261" type="line"/>
			<point x="600" y="393"/>
			<point x="539" y="443"/>
			<point x="443" y="443" type="curve" smooth="yes"/>
			<point x="384.552" y="443"/>
			<point x="344" y="424"/>
			<point x="315" y="399" type="curve"/>
			<point x="290" y="424"/>
			<point x="257" y="443"/>
			<point x="178" y="443" type="curve" smooth="yes"/>
			<point x="60" y="443"/>
			<point x="2" y="382"/>
			<point x="2" y="282" type="curve"/>
			<point x="93" y="282" type="line"/>
			<point x="93" y="336"/>
			<point x="118" y="356"/>
			<point x="191" y="358" type="curve" smooth="yes"/>
			<point x="257" y="360"/>
			<point x="280" y="335"/>
			<point x="280" y="268" type="curve"/>
			<point x="170" y="256" type="line" smooth="yes"/>
			<point x="61" y="244"/>
			<point x="-6" y="192"/>
			<point x="-6" y="113" type="curve" smooth="yes"/>
			<point x="-6" y="32"/>
			<point x="77" y="-13"/>
			<point x="150" y="-13" type="curve" smooth="yes"/>
			<point x="226" y="-13"/>
			<point x="252" y="13"/>
			<point x="306" y="51" type="curve"/>
			<point x="334" y="19"/>
			<point x="367" y="-13"/>
			<point x="439" y="-13" type="curve" smooth="yes"/>
			<point x="523" y="-13"/>
			<point x="583" y="28"/>
			<point x="605" y="134" type="curve"/>
			<point x="518" y="134" type="line"/>
			<point x="504" y="87"/>
			<point x="479" y="72"/>
			<point x="439" y="72" type="curve" smooth="yes"/>
			<point x="379" y="72"/>
			<point x="357" y="96"/>
			<point x="352" y="176" type="curve"/>
		</contour>
		<contour>
			<point x="519" y="261" type="curve"/>
			<point x="353" y="261" type="line"/>
			<point x="359" y="335"/>
			<point x="387" y="359"/>
			<point x="438" y="359" type="curve" smooth="yes"/>
			<point x="482" y="359"/>
			<point x="513" y="335"/>
		</contour>
		<contour>
			<point x="280" y="191" type="line"/>
			<point x="280" y="130" type="line"/>
			<point x="242" y="93"/>
			<point x="202" y="64"/>
			<point x="152" y="64" type="curve" smooth="yes"/>
			<point x="110" y="64"/>
			<point x="79" y="85"/>
			<point x="79" y="122" type="curve" smooth="yes"/>
			<point x="79" y="161"/>
			<point x="134" y="175"/>
			<point x="198" y="182" type="curve" smooth="yes"/>
		</contour>
	</outline>
</glyph>
<glyph name="dotlessi" format="2">
	<advance width="600"/>
	<unicode hex="0131"/>
	<anchor x="240" y="443" name="top"/>
	<outline>
		<contour>
			<point x="521" y="85" type="line"/>
			<point x="354" y="85" type="line"/>
			<point x="354" y="430" type="line"/>
			<point x="90" y="430" type="line"/>
			<point x="90" y="345" type="line"/>
			<point x="264" y="345" type="line"/>
			<point x="264" y="85" type="line"/>
			<point x="90" y="85" type="line"/>
			<point x="90" y="0" type="line"/>
			<point x="521" y="0" type="line"/>
		</contour>
	</outline>
</glyph>
<glyph name="Lslash" format="2">
	<advance width="600"/>
	<unicode hex="0141"/>
	<outline>
		<contour>
			<point x="48" y="217" type="line"/>
			<point x="286" y="301" type="line"/>
			<point x="257" y="382" type="line"/>
			<point x="19" y="298" type="line"/>
		</contour>
		<component base="L" xOffset="30"/>
	</outline>
</glyph>
<glyph name="eng" format="2">
	<advance width="600"/>
	<unicode hex="014B"/>
	<anchor x="321" y="443" name="_top"/>
	<outline>
		<contour>
			<point x="267" y="-89" type="curve"/>
			<point x="251" y="-161" type="line" smooth="yes"/>
			<point x="251" y="-161"/>
			<point x="283" y="-173"/>
			<point x="356" y="-173" type="curve" smooth="yes"/>
			<point x="453" y="-173"/>
			<point x="526" y="-142"/>
			<point x="526" y="41" type="curve"/>
			<point x="526" y="315" type="line"/>
			<point x="525" y="402"/>
			<point x="476" y="442"/>
			<point x="376" y="442" type="curve" smooth="yes"/>
			<point x="287" y="442"/>
			<point x="235" y="419"/>
			<point x="162" y="325" type="curve"/>
			<point x="162" y="430" type="line"/>
			<point x="73" y="430" type="line"/>
			<point x="73" y="0" type="line"/>
			<point x="163" y="0" type="line"/>
			<point x="163" y="210" type="line"/>
			<point x="208" y="264" type="line" smooth="yes"/>
			<point x="273" y="342"/>
			<point x="307" y="357"/>
			<point x="365" y="357" type="curve" smooth="yes"/>
			<point x="419" y="357"/>
			<point x="436" y="331"/>
			<point x="436" y="272" type="curve"/>
			<point x="436" y="41" type="line"/>
			<point x="436" y="-63"/>
			<point x="416" y="-96"/>
			<point x="354" y="-96" type="curve" smooth="yes"/>
			<point x="292" y="-96"/>
			<point x="267" y="-89"/>
		</contour>
	</outline>
</glyph>
<glyph name="OE" format="2">
	<advance width="600"/>
	<unicode hex="0152"/>
	<outline>
		<contour>
			<point x="368" y="500" type="line"/>
			<point x="600" y="500" type="line"/>
			<point x="600" y="590" type="line"/>
			<point x="231" y="590" type="line"/>
			<point x="52" y="590"/>
			<point x="0" y="513"/>
			<point x="0" y="315" type="curve" smooth="yes"/>
			<point x="0" y="79"/>
			<point x="52" y="0"/>
			<point x="231" y="0" type="curve"/>
			<point x="600" y="0" type="line"/>
			<point x="600" y="90" type="line"/>
			<point x="368" y="90" type="line"/>
			<point x="368" y="254" type="line"/>
			<point x="554" y="254" type="line"/>
			<point x="554" y="344" type="line"/>
			<point x="368" y="344" type="line"/>
		</contour>
		<contour>
			<point x="268" y="496.701" type="curve"/>
			<point x="268" y="92" type="line"/>
			<point x="257" y="92"/>
			<point x="244" y="92"/>
			<point x="221" y="92" type="curve" smooth="yes"/>
			<point x="112" y="92"/>
			<point x="93" y="139"/>
			<point x="93" y="314" type="curve" smooth="yes"/>
			<point x="93" y="447"/>
			<point x="112" y="498"/>
			<point x="221" y="498" type="curve" smooth="yes"/>
			<point x="244" y="498"/>
			<point x="256.704" y="497.575"/>
		</contour>
	</outline>
</glyph>
<glyph name="florin" format="2">
	<advance width="600"/>
	<unicode hex="0192"/>
	<outline>
		<contour>
			<point x="265" y="395" type="curve" smooth="yes"/>
			<point x="236" y="37" type="line"/>
			<point x="222" y="-80"/>
			<point x="207" y="-94"/>
			<point x="129" y="-84" type="curve" smooth="yes"/>
			<point x="75" y="-77"/>
			<point x="40" y="-62"/>
			<point x="40" y="-62" type="curve"/>
			<point x="10" y="-137" type="line"/>
			<point x="10" y="-137"/>
			<point x="53" y="-163"/>
			<point x="136" y="-173" type="curve" smooth="yes"/>
			<point x="244" y="-186"/>
			<point x="312" y="-135"/>
			<point x="325" y="22" type="curve"/>
			<point x="354" y="380" type="line"/>
			<point x="363" y="477"/>
			<point x="375" y="519"/>
			<point x="463" y="514" type="curve" smooth="yes"/>
			<point x="517" y="511"/>
			<point x="552" y="483"/>
			<point x="552" y="483" type="curve"/>
			<point x="591" y="551" type="line"/>
			<point x="591" y="551"/>
			<point x="533" y="599"/>
			<point x="456" y="603" type="curve" smooth="yes"/>
			<point x="364" y="608"/>
			<point x="279" y="565"/>
		</contour>
		<contour>
			<point x="114" y="350" type="line"/>
			<point x="114" y="260" type="line"/>
			<point x="519" y="260" type="line"/>
			<point x="519" y="350" type="line"/>
		</contour>
	</outline>
</glyph>
<glyph name="breve" format="2">
	<advance width="600"/>
	<unicode hex="02D8"/>
	<anchor x="289" y="443" name="_top"/>
	<outline>
		<contour>
			<point x="441" y="700" type="curve"/>
			<point x="367" y="700" type="line"/>
			<point x="367" y="699"/>
			<point x="367" y="699"/>
			<point x="367" y="698" type="curve"/>
			<point x="367" y="653"/>
			<point x="333" y="619"/>
			<point x="289" y="619" type="curve"/>
			<point x="244" y="619"/>
			<point x="210" y="653"/>
			<point x="210" y="698" type="curve"/>
			<point x="210" y="699"/>
			<point x="210" y="699"/>
			<point x="210" y="700" type="curve"/>
			<point x="136" y="700" type="line"/>
			<point x="136" y="621"/>
			<point x="190" y="545"/>
			<point x="289" y="545" type="curve"/>
			<point x="387" y="545"/>
			<point x="441" y="621"/>
		</contour>
	</outline>
</glyph>
<glyph name="ogonek" format="2">
	<advance width="600"/>
	<unicode hex="02DB"/>
	<outline>
		<contour>
			<point x="256" y="-63" type="curve"/>
			<point x="288" y="0" type="line"/>
			<point x="223" y="0" type="line"/>
			<point x="199" y="-47" type="line"/>
			<point x="184" y="-76"/>
			<point x="180" y="-119"/>
			<point x="212" y="-150" type="curve"/>
			<point x="243" y="-181"/>
			<point x="286" y="-177"/>
			<point x="317" y="-165" type="curve"/>
			<point x="389" y="-134" type="line"/>
			<point x="365" y="-78" type="line"/>
			<point x="288" y="-115"/>
			<point x="266" y="-117"/>
			<point x="256" y="-107" type="curve"/>
			<point x="248" y="-99"/>
			<point x="244" y="-90"/>
		</contour>
	</outline>
</glyph>
<glyph name="uni0394" format="2">
	<advance width="600"/>
	<unicode hex="0394"/>
	<outline>
		<contour>
			<point x="259" y="603" type="line"/>
			<point x="46" y="78" type="line"/>
			<point x="46" y="0" type="line"/>
			<point x="553" y="0" type="line"/>
			<point x="553" y="80" type="line"/>
			<point x="341" y="603" type="line"/>
		</contour>
		<contour>
			<point x="453" y="90" type="line"/>
			<point x="147" y="90" type="line"/>
			<point x="300" y="455" type="line"/>
		</contour>
	</outline>
</glyph>
<glyph name="uni03A9" format="2">
	<advance width="600"/>
	<unicode hex="03A9"/>
	<outline>
		<contour>
			<point x="260" y="0" type="line"/>
			<point x="260" y="14" type="line"/>
			<point x="153" y="194"/>
			<point x="117" y="265"/>
			<point x="117" y="365" type="curve" smooth="yes"/>
			<point x="117" y="470"/>
			<point x="206" y="513"/>
			<point x="300" y="513" type="curve" smooth="yes"/>
			<point x="394" y="513"/>
			<point x="483" y="470"/>
			<point x="483" y="365" type="curve" smooth="yes"/>
			<point x="483" y="275"/>
			<point x="446" y="191"/>
			<point x="340" y="14" type="curve"/>
			<point x="340" y="0" type="line"/>
			<point x="568" y="0" type="line"/>
			<point x="568" y="70" type="line"/>
			<point x="467" y="70" type="line"/>
			<point x="544" y="178"/>
			<point x="573" y="277"/>
			<point x="573" y="366" type="curve" smooth="yes"/>
			<point x="573" y="511"/>
			<point x="452" y="603"/>
			<point x="300" y="603" type="curve" smooth="yes"/>
			<point x="148" y="603"/>
			<point x="27" y="511"/>
			<point x="27" y="366" type="curve" smooth="yes"/>
			<point x="27" y="266"/>
			<point x="57" y="175"/>
			<point x="133" y="70" type="curve"/>
			<point x="32" y="70" type="line"/>
			<point x="32" y="0" type="line"/>
		</contour>
	</outline>
</glyph>
<glyph name="endash" format="2">
	<advance width="600"/>
	<unicode hex="2013"/>
	<outline>
		<contour>
			<point x="110" y="305" type="line"/>
			<point x="110" y="220" type="line"/>
			<point x="491" y="220" type="line"/>
			<point x="491" y="305" type="line"/>
		</contour>
	</outline>
</glyph>
<glyph name="quoteleft" format="2">
	<advance width="600"/>
	<unicode hex="2018"/>
	<outline>
		<contour>
			<point x="214" y="430" type="line"/>
			<point x="386" y="430" type="line"/>
			<point x="386" y="573" type="line"/>
			<point x="328" y="573" type="line"/>
			<point x="381" y="729" type="line"/>
			<point x="315" y="751" type="line"/>
			<point x="214" y="563" type="line"/>
		</contour>
	</outline>
</glyph>
<glyph name="quoteright" format="2">
	<advance width="600"/>
	<unicode hex="2019"/>
	<outline>
		<contour>
			<point x="386" y="603" type="line"/>
			<point x="214" y="603" type="line"/>
			<point x="214" y="460" type="line"/>
			<point x="272" y="460" type="line"/>
			<point x="219" y="304" type="line"/>
			<point x="285" y="282" type="line"/>
			<point x="386" y="470" type="line"/>
		</contour>
	</outline>
</glyph>
<glyph name="quotedblleft" format="2">
	<advance width="600"/>
	<unicode hex="201C"/>
	<outline>
		<contour>
			<point x="329" y="430" type="line"/>
			<point x="501" y="430" type="line"/>
			<point x="501" y="573" type="line"/>
			<point x="443" y="573" type="line"/>
			<point x="496" y="729" type="line"/>
			<point x="430" y="751" type="line"/>
			<point x="329" y="563" type="line"/>
		</contour>
		<contour>
			<point x="99" y="430" type="line"/>
			<point x="271" y="430" type="line"/>
			<point x="271" y="573" type="line"/>
			<point x="213" y="573" type="line"/>
			<point x="266" y="729" type="line"/>
			<point x="200" y="751" type="line"/>
			<point x="99" y="563" type="line"/>
		</contour>
	</outline>
</glyph>
<glyph name="bullet" format="2">
	<advance width="600"/>
	<unicode hex="2022"/>
	<outline>
		<contour>
			<point x="300" y="139" type="curve" smooth="yes"/>
			<point x="384" y="139"/>
			<point x="452" y="207"/>
			<point x="452" y="291" type="curve" smooth="yes"/>
			<point x="452" y="375"/>
			<point x="384" y="443"/>
			<point x="300" y="443" type="curve" smooth="yes"/>
			<point x="216" y="443"/>
			<point x="148" y="375"/>
			<point x="148" y="291" type="curve" smooth="yes"/>
			<point x="148" y="207"/>
			<point x="216" y="139"/>
		</contour>
	</outline>
</glyph>
<glyph name="ellipsis" format="2">
	<advance width="600"/>
	<unicode hex="2026"/>
	<outline>
		<contour>
			<point x="374" y="0" type="line"/>
			<point x="374" y="148" type="line"/>
			<point x="226" y="148" type="line"/>
			<point x="226" y="0" type="line"/>
		</contour>
		<contour>
			<point x="164" y="0" type="line"/>
			<point x="164" y="148" type="line"/>
			<point x="16" y="148" type="line"/>
			<point x="16" y="0" type="line"/>
		</contour>
		<contour>
			<point x="584" y="0" type="line"/>
			<point x="584" y="148" type="line"/>
			<point x="436" y="148" type="line"/>
			<point x="436" y="0" type="line"/>
		</contour>
	</outline>
</glyph>
<glyph name="guilsinglleft" format="2">
	<advance width="600"/>
	<unicode hex="2039"/>
	<outline>
		<contour>
			<point x="295" y="270" type="line"/>
			<point x="415" y="430" type="line"/>
			<point x="306" y="430" type="line"/>
			<point x="186" y="270" type="line"/>
			<point x="306" y="110" type="line"/>
			<point x="415" y="110" type="line"/>
		</contour>
	</outline>
</glyph>
<glyph name="guilsinglright" format="2">
	<advance width="600"/>
	<unicode hex="203A"/>
	<outline>
		<contour>
			<point x="305" y="270" type="line"/>
			<point x="185" y="110" type="line"/>
			<point x="294" y="110" type="line"/>
			<point x="414" y="270" type="line"/>
			<point x="294" y="430" type="line"/>
			<point x="185" y="430" type="line"/>
		</contour>
	</outline>
</glyph>
<glyph name="Euro" format="2">
	<advance width="600"/>
	<unicode hex="20AC"/>
	<outline>
		<contour>
			<point x="587" y="207" type="curve"/>
			<point x="489" y="207" type="line"/>
			<point x="489" y="143"/>
			<point x="441" y="87"/>
			<point x="330" y="87" type="curve" smooth="yes"/>
			<point x="174" y="87"/>
			<point x="168" y="151"/>
			<point x="168" y="314" type="curve" smooth="yes"/>
			<point x="168" y="435"/>
			<point x="174" y="503"/>
			<point x="330" y="503" type="curve" smooth="yes"/>
			<point x="439" y="503"/>
			<point x="488" y="450"/>
			<point x="488" y="386" type="curve"/>
			<point x="588" y="386" type="line"/>
			<point x="588" y="527"/>
			<point x="499" y="603"/>
			<point x="330" y="603" type="curve" smooth="yes"/>
			<point x="124" y="603"/>
			<point x="68" y="501"/>
			<point x="68" y="315" type="curve" smooth="yes"/>
			<point x="68" y="91"/>
			<point x="124" y="-13"/>
			<point x="330" y="-13" type="curve" smooth="yes"/>
			<point x="496" y="-13"/>
			<point x="587" y="66"/>
		</contour>
		<contour>
			<point x="12" y="389" type="line"/>
			<point x="12" y="309" type="line"/>
			<point x="412" y="309" type="line"/>
			<point x="412" y="389" type="line"/>
		</contour>
		<contour>
			<point x="12" y="251" type="line"/>
			<point x="12" y="171" type="line"/>
			<point x="412" y="171" type="line"/>
			<point x="412" y="251" type="line"/>
		</contour>
	</outline>
</glyph>
<glyph name="arrowright" format="2">
	<advance width="600"/>
	<unicode hex="2192"/>
	<outline>
		<contour>
			<point x="566" y="214" type="line"/>
			<point x="433" y="390" type="line"/>
			<point x="314" y="390" type="line"/>
			<point x="411" y="259" type="line"/>
			<point x="35" y="259" type="line"/>
			<point x="35" y="161" type="line"/>
			<point x="411" y="161" type="line"/>
			<point x="314" y="38" type="line"/>
			<point x="433" y="38" type="line"/>
		</contour>
	</outline>
</glyph>
<glyph name="radical" format="2">
	<advance width="600"/>
	<unicode hex="221A"/>
	<outline>
		<contour>
			<point x="559" y="585" type="line"/>
			<point x="469" y="603" type="line"/>
			<point x="314" y="-40" type="line"/>
			<point x="239" y="288" type="line"/>
			<point x="41" y="219" type="line"/>
			<point x="69" y="134" type="line"/>
			<point x="172" y="169" type="line"/>
			<point x="259" y="-180" type="line"/>
			<point x="372" y="-180" type="line"/>
		</contour>
	</outline>
</glyph>
<glyph name="infinity" format="2">
	<advance width="600"/>
	<unicode hex="221E"/>
	<outline>
		<contour>
			<point x="431" y="273" type="curve"/>
			<point x="375.474" y="273"/>
			<point x="333.222" y="235.303"/>
			<point x="299.821" y="193.103" type="curve"/>
			<point x="265.864" y="235.276"/>
			<point x="223.884" y="273"/>
			<point x="170" y="273" type="curve"/>
			<point x="88.2679" y="273"/>
			<point x="10" y="201.847"/>
			<point x="10" y="120" type="curve"/>
			<point x="10" y="38.1526"/>
			<point x="88.2679" y="-33"/>
			<point x="170" y="-33" type="curve"/>
			<point x="223.813" y="-33"/>
			<point x="265.819" y="4.69728"/>
			<point x="299.185" y="46.8973" type="curve"/>
			<point x="333.177" y="4.72428"/>
			<point x="375.401" y="-33"/>
			<point x="431" y="-33" type="curve"/>
			<point x="511.732" y="-33"/>
			<point x="590" y="38.1526"/>
			<point x="590" y="120" type="curve"/>
			<point x="590" y="201.847"/>
			<point x="511.732" y="273"/>
		</contour>
		<contour>
			<point x="169" y="55" type="curve"/>
			<point x="131.667" y="55"/>
			<point x="99" y="84.1159"/>
			<point x="99" y="120" type="curve"/>
			<point x="99" y="156.337"/>
			<point x="131.743" y="187.567"/>
			<point x="168.15" y="186.018" type="curve"/>
			<point x="195.351" y="184.622"/>
			<point x="218.56" y="158.299"/>
			<point x="246.467" y="119.12" type="curve"/>
			<point x="218.621" y="80.7918"/>
			<point x="195.759" y="55"/>
		</contour>
		<contour>
			<point x="430" y="55" type="curve"/>
			<point x="404.327" y="55"/>
			<point x="381.443" y="81.5627"/>
			<point x="352.762" y="120.122" type="curve"/>
			<point x="381.439" y="159.44"/>
			<point x="404.295" y="186"/>
			<point x="430" y="186" type="curve"/>
			<point x="467.316" y="186"/>
			<point x="501" y="155.902"/>
			<point x="501" y="120" type="curve"/>
			<point x="501" y="84.2536"/>
			<point x="467.463" y="55"/>
		</contour>
	</outline>
</glyph>
<glyph name="approxequal" format="2">
	<advance width="600"/>
	<unicode hex="2248"/>
	<outline>
		<contour>
			<point x="523" y="371" type="curve"/>
			<point x="445" y="397" type="line"/>
			<point x="428" y="334"/>
			<point x="403" y="334"/>
			<point x="308" y="374" type="curve" smooth="yes"/>
			<point x="177" y="429"/>
			<point x="112" y="394"/>
			<point x="76" y="290" type="curve"/>
			<point x="155" y="264" type="line"/>
			<point x="179" y="328"/>
			<point x="207" y="328"/>
			<point x="311" y="286" type="curve" smooth="yes"/>
			<point x="427" y="239"/>
			<point x="490" y="265"/>
		</contour>
		<contour>
			<point x="523" y="201" type="curve"/>
			<point x="445" y="227" type="line"/>
			<point x="428" y="164"/>
			<point x="403" y="164"/>
			<point x="308" y="204" type="curve" smooth="yes"/>
			<point x="177" y="259"/>
			<point x="112" y="224"/>
			<point x="76" y="120" type="curve"/>
			<point x="155" y="94" type="line"/>
			<point x="179" y="158"/>
			<point x="207" y="158"/>
			<point x="311" y="116" type="curve" smooth="yes"/>
			<point x="427" y="69"/>
			<point x="490" y="95"/>
		</contour>
	</outline>
</glyph>
<glyph name="notequal" format="2">
	<advance width="600"/>
	<unicode hex="2260"/>
	<outline>
		<contour>
			<point x="65" y="361" type="line"/>
			<point x="65" y="276" type="line"/>
			<point x="535" y="276" type="line"/>
			<point x="535" y="361" type="line"/>
		</contour>
		<contour>
			<point x="65" y="192" type="line"/>
			<point x="65" y="107" type="line"/>
			<point x="535" y="107" type="line"/>
			<point x="535" y="192" type="line"/>
		</contour>
		<contour>
			<point x="417" y="503" type="line"/>
			<point x="326" y="503" type="line"/>
			<point x="186" y="-10" type="line"/>
			<point x="277" y="-10" type="line"/>
		</contour>
	</outline>
</glyph>
<glyph name="lessequal" format="2">
	<advance width="600"/>
	<unicode hex="2264"/>
	<outline>
		<contour>
			<point x="50" y="85" type="line"/>
			<point x="50" y="0" type="line"/>
			<point x="550" y="0" type="line"/>
			<point x="550" y="85" type="line"/>
		</contour>
		<contour>
			<point x="67" y="319" type="line"/>
			<point x="547" y="119" type="line"/>
			<point x="547" y="204" type="line"/>
			<point x="182" y="361" type="line"/>
			<point x="547" y="518" type="line"/>
			<point x="547" y="603" type="line"/>
			<point x="67" y="404" type="line"/>
		</contour>
	</outline>
</glyph>
<glyph name="greaterequal" format="2">
	<advance width="600"/>
	<unicode hex="2265"/>
	<outline>
		<contour>
			<point x="550" y="85" type="line"/>
			<point x="50" y="85" type="line"/>
			<point x="50" y="0" type="line"/>
			<point x="550" y="0" type="line"/>
		</contour>
		<contour>
			<point x="533" y="319" type="line"/>
			<point x="533" y="404" type="line"/>
			<point x="53" y="603" type="line"/>
			<point x="53" y="518" type="line"/>
			<point x="418" y="361" type="line"/>
			<point x="53" y="204" type="line"/>
			<point x="53" y="119" type="line"/>
		</contour>
	</outline>
</glyph>
<glyph name="Femme" format="2">
	<advance width="600"/>
	<outline>
		<contour>
			<point x="255" y="276" type="line"/>
			<point x="255" y="-160" type="line"/>
			<point x="345" y="-160" type="line"/>
			<point x="345" y="276" type="line"/>
		</contour>
		<contour>
			<point x="482" y="109" type="line"/>
			<point x="118" y="109" type="line"/>
			<point x="118" y="24" type="line"/>
			<point x="482" y="24" type="line"/>
		</contour>
		<contour>
			<point x="301" y="252" type="curve"/>
			<point x="414" y="252"/>
			<point x="476" y="337"/>
			<point x="476" y="428" type="curve"/>
			<point x="476" y="518"/>
			<point x="414" y="603"/>
			<point x="301" y="603" type="curve"/>
			<point x="187" y="603"/>
			<point x="125" y="518"/>
			<point x="125" y="428" type="curve"/>
			<point x="125" y="337"/>
			<point x="187" y="252"/>
		</contour>
		<contour>
			<point x="301" y="337" type="curve"/>
			<point x="250" y="337"/>
			<point x="210" y="377"/>
			<point x="210" y="428" type="curve"/>
			<point x="210" y="478"/>
			<point x="250" y="518"/>
			<point x="301" y="518" type="curve"/>
			<point x="351" y="518"/>
			<point x="391" y="478"/>
			<point x="391" y="428" type="curve"/>
			<point x="391" y="377"/>
			<point x="351" y="337"/>
		</contour>
	</outline>
</glyph>
<glyph name="Homme" format="2">
	<advance width="600"/>
	<outline>
		<contour>
			<point x="467" y="590" type="line"/>
			<point x="247" y="564" type="line"/>
			<point x="188" y="461" type="line"/>
			<point x="350" y="478" type="line"/>
			<point x="231" y="274" type="line"/>
			<point x="316" y="224" type="line"/>
			<point x="435" y="430" type="line"/>
			<point x="494" y="284" type="line"/>
			<point x="554" y="385" type="line"/>
		</contour>
		<contour>
			<point x="223" y="-13" type="curve"/>
			<point x="336" y="-13"/>
			<point x="398" y="72"/>
			<point x="398" y="163" type="curve"/>
			<point x="398" y="253"/>
			<point x="336" y="338"/>
			<point x="223" y="338" type="curve"/>
			<point x="109" y="338"/>
			<point x="47" y="253"/>
			<point x="47" y="163" type="curve"/>
			<point x="47" y="72"/>
			<point x="109" y="-13"/>
		</contour>
		<contour>
			<point x="223" y="72" type="curve"/>
			<point x="172" y="72"/>
			<point x="132" y="112"/>
			<point x="132" y="163" type="curve"/>
			<point x="132" y="213"/>
			<point x="172" y="253"/>
			<point x="223" y="253" type="curve"/>
			<point x="273" y="253"/>
			<point x="313" y="213"/>
			<point x="313" y="163" type="curve"/>
			<point x="313" y="112"/>
			<point x="273" y="72"/>
		</contour>
	</outline>
</glyph>
<glyph name="uni20BF" format="2">
	<advance width="600"/>
	<outline>
		<contour>
			<point x="430" y="300" type="curve"/>
			<point x="430" y="303" type="line"/>
			<point x="497" y="314"/>
			<point x="532" y="361"/>
			<point x="532" y="437" type="curve" smooth="yes"/>
			<point x="532" y="525.501"/>
			<point x="474" y="576"/>
			<point x="399" y="587" type="curve"/>
			<point x="399" y="662" type="line"/>
			<point x="309" y="662" type="line"/>
			<point x="309" y="590" type="line"/>
			<point x="228" y="590" type="line"/>
			<point x="228" y="662" type="line"/>
			<point x="138" y="662" type="line"/>
			<point x="138" y="590" type="line"/>
			<point x="52" y="590" type="line"/>
			<point x="52" y="0" type="line"/>
			<point x="138" y="0" type="line"/>
			<point x="138" y="-88" type="line"/>
			<point x="228" y="-88" type="line"/>
			<point x="228" y="0" type="line"/>
			<point x="309" y="0" type="line"/>
			<point x="309" y="-88" type="line"/>
			<point x="399" y="-88" type="line"/>
			<point x="399" y="2" type="line"/>
			<point x="492" y="12"/>
			<point x="549" y="73.7283"/>
			<point x="549" y="170" type="curve" smooth="yes"/>
			<point x="549" y="240"/>
			<point x="508" y="291"/>
		</contour>
		<contour>
			<point x="152" y="340" type="line"/>
			<point x="152" y="500" type="line"/>
			<point x="333" y="500" type="line" smooth="yes"/>
			<point x="403" y="500"/>
			<point x="430" y="473"/>
			<point x="430" y="423" type="curve" smooth="yes"/>
			<point x="430" y="368"/>
			<point x="391" y="340"/>
			<point x="327" y="340" type="curve" smooth="yes"/>
		</contour>
		<contour>
			<point x="341" y="90" type="curve" smooth="yes"/>
			<point x="152" y="90" type="line"/>
			<point x="152" y="252" type="line"/>
			<point x="346" y="252" type="line" smooth="yes"/>
			<point x="405" y="252"/>
			<point x="446" y="232"/>
			<point x="445" y="177" type="curve" smooth="yes"/>
			<point x="444" y="122"/>
			<point x="410" y="90"/>
		</contour>
	</outline>
</glyph>
<glyph name="uni2116" format="2">
	<advance width="600"/>
	<outline>
		<contour>
			<point x="331" y="590" type="line"/>
			<point x="255" y="590" type="line"/>
			<point x="255" y="107" type="line"/>
			<point x="149" y="590" type="line"/>
			<point x="25" y="590" type="line"/>
			<point x="25" y="0" type="line"/>
			<point x="101" y="0" type="line"/>
			<point x="101" y="469" type="line"/>
			<point x="202" y="0" type="line"/>
			<point x="331" y="0" type="line"/>
		</contour>
		<contour>
			<point x="431" y="464" type="curve" smooth="yes"/>
			<point x="431" y="520"/>
			<point x="449" y="537"/>
			<point x="478" y="537" type="curve" smooth="yes"/>
			<point x="505" y="537"/>
			<point x="523" y="520"/>
			<point x="523" y="464" type="curve" smooth="yes"/>
			<point x="523" y="415"/>
			<point x="505" y="395"/>
			<point x="478" y="395" type="curve" smooth="yes"/>
			<point x="449" y="395"/>
			<point x="431" y="415"/>
		</contour>
		<contour>
			<point x="367" y="464" type="curve" smooth="yes"/>
			<point x="367" y="378"/>
			<point x="397" y="329"/>
			<point x="477" y="329" type="curve" smooth="yes"/>
			<point x="557" y="329"/>
			<point x="587" y="378"/>
			<point x="587" y="464" type="curve" smooth="yes"/>
			<point x="587" y="556"/>
			<point x="557" y="603"/>
			<point x="477" y="603" type="curve" smooth="yes"/>
			<point x="397" y="603"/>
			<point x="367" y="556"/>
		</contour>
		<contour>
			<point x="378" y="308" type="line"/>
			<point x="378" y="252" type="line"/>
			<point x="571" y="252" type="line"/>
			<point x="571" y="308" type="line"/>
		</contour>
	</outline>
</glyph>
